PathFileType	4	(X/Y/Z)	D:\TRACE\spotREDO_2-26-24\spot_baseline_5-v60.trc
DataRate	CameraRate	NumFrames	NumMarkers	Units	OrigDataRate	OrigDataStartFrame	OrigNumFrames
100.00	100.00	      35	9	mm	100.00	1751	      7000
Frame#	Time	front left toe			Front right toe			aft left toe			aft right toe			Arm			FL body			FR body			AL Body			AR Body			
		X1	Y1	Z1	X2	Y2	Z2	X3	Y3	Z3	X4	Y4	Z4	X5	Y5	Z5	X6	Y6	Z6	X7	Y7	Z7	X8	Y8	Z8	X9	Y9	Z9	

1751	17.500	-251.85181	22.84811	-149.57047	261.94608	24.50081	-51.37009	-247.47566	20.90236	342.03824	216.04286	25.75674	385.95993	33.32645	809.25275	-288.49814	-49.56458	549.22174	-270.59460	106.61605	554.65472	-258.36725	-127.53441	561.49200	609.36304	19.85889	563.28278	623.18756	
1752	17.510	-251.99367	22.98381	-150.23849	262.07623	24.40294	-51.43576	-247.47075	20.85733	342.12888	216.18237	25.51091	385.93570	31.91529	809.18896	-290.00311	-51.31934	549.23523	-272.63913	103.97291	555.05951	-260.56793	-128.91162	560.95490	607.34235	18.73250	562.63409	621.72205	
1753	17.520	-252.50758	22.01004	-150.37790	262.26489	24.87569	-52.29199	-247.68127	19.70091	341.81375	218.53714	29.97977	386.23834	30.13436	809.32922	-291.88293	-53.00827	549.34619	-274.64282	102.37914	555.25549	-262.32584	-130.31918	560.55762	605.46729	16.97129	562.29169	619.18024	
1754	17.530	-253.41386	22.08668	-150.24722	261.94281	25.04462	-52.78080	-248.68857	19.31574	341.94583	217.69501	37.86451	392.01517	28.28771	809.47223	-293.61261	-55.27890	550.27448	-276.60385	100.18496	555.29346	-264.52902	-130.69667	559.77899	603.96802	16.66872	560.24908	617.38965	
1755	17.540	-253.57977	22.34971	-150.25714	260.65649	24.62909	-53.22259	-248.68787	19.24648	341.86899	213.59535	47.17612	398.84085	27.92913	809.84259	-295.02277	-57.34110	550.87494	-278.54654	97.86176	555.40961	-266.78534	-131.67854	559.06519	602.34802	15.67675	559.16815	615.37085	
1756	17.550	-252.99080	21.92601	-150.40843	260.51199	24.99781	-53.89196	-248.15034	19.31306	341.91196	216.42754	59.67691	403.43341	26.94753	810.50391	-296.63486	-59.14032	550.89417	-280.17856	96.15956	555.09619	-268.86752	-134.59909	560.23602	601.22937	14.42879	558.73438	613.45068	
1757	17.560	-253.51266	21.29239	-150.26288	260.50098	24.85709	-53.40429	-247.99484	19.43215	341.81305	217.21750	72.53728	401.69556	25.66663	810.53790	-298.04971	-60.46149	550.12836	-281.91541	94.84026	554.12811	-270.43121	-136.18860	559.89655	598.31805	12.92978	559.11334	611.73682	
1758	17.570	-253.99861	20.79968	-150.42853	260.76190	24.77625	-53.21385	-248.20201	19.41080	341.83044	223.93443	87.10037	397.90536	23.97430	809.30695	-299.95773	-61.66810	549.60382	-283.50275	93.83243	553.27960	-271.57666	-137.56564	560.15375	596.79883	11.32384	559.19434	610.32831	
1759	17.580	-253.97119	20.78197	-150.46071	260.53433	25.02259	-53.42914	-248.68263	19.35920	341.75021	224.09259	98.83672	393.69589	22.79408	807.65149	-301.83051	-62.94326	549.39380	-284.87311	92.48359	553.19751	-273.13470	-139.07666	559.92828	595.35394	9.86614	558.94220	608.93500	
1760	17.590	-253.96468	20.93968	-150.48067	260.53616	25.09711	-53.58075	-248.91785	19.33894	341.79700	225.21811	109.47535	393.05707	21.81540	807.33563	-303.43307	-63.65816	549.12097	-286.13715	91.60508	553.01819	-274.44946	-140.31224	559.67029	593.89209	8.64179	558.69342	607.61151	
1761	17.600	-254.04059	20.85890	-150.44344	260.49911	25.09354	-53.69128	-248.99236	19.12955	341.78314	221.89850	116.99268	395.16681	20.92890	807.70172	-304.81458	-64.95358	548.84033	-287.58505	90.61187	552.72876	-275.63904	-141.23062	559.39703	592.70477	7.71947	558.54358	606.28442	
1762	17.610	-254.13092	20.66638	-150.44038	260.51495	25.17874	-53.82095	-248.85141	18.99787	341.76056	222.12247	125.30479	399.66089	20.10914	807.85986	-305.79172	-66.14639	548.63745	-288.92389	89.10857	552.31989	-276.93051	-141.99478	559.30017	591.78125	6.73462	558.36285	604.88104	
1763	17.620	-254.21255	20.52007	-150.43040	260.46506	25.28246	-53.87589	-248.74344	19.05963	341.70663	223.79474	132.62108	403.46497	19.08787	807.62164	-306.87848	-67.12804	548.51709	-289.98822	88.13634	552.32788	-278.47473	-143.34177	559.09418	590.12671	5.75479	558.16071	603.68567	
1764	17.630	-254.23158	20.47864	-150.48685	260.44064	25.34265	-53.89664	-248.88295	19.11905	341.73996	226.79684	139.86302	404.92230	18.08574	807.37958	-308.02545	-67.82036	548.25513	-291.14429	87.79032	552.27203	-279.42245	-144.20370	558.94031	589.15430	4.52794	558.05035	602.69427	
1765	17.640	-254.15010	20.44864	-150.57080	260.45279	25.39888	-53.90014	-249.07419	19.06873	341.70663	231.78864	146.07616	405.99860	17.49813	806.93982	-309.05969	-68.52197	548.09698	-292.13489	86.85820	552.15210	-280.38437	-145.39622	558.87421	588.18005	3.24290	557.99274	601.70428	
1766	17.650	-254.08530	20.33729	-150.70592	260.44339	25.39942	-53.83886	-249.14429	18.92246	341.68570	234.07822	149.13208	406.44144	16.35169	806.71954	-310.09369	-69.09043	547.65759	-293.09940	87.13026	552.28522	-281.49109	-146.62253	558.73181	586.98730	2.31201	558.08594	600.85541	
1767	17.660	-254.12616	20.23633	-150.74223	260.38394	25.45076	-53.92729	-249.26833	18.65390	341.52969	236.10033	149.52347	408.12897	15.05397	806.65723	-311.27737	-69.64768	547.45111	-293.86035	86.37702	552.16980	-282.18805	-147.34775	558.70551	586.20154	1.15672	558.21637	599.90106	
1768	17.670	-254.16167	20.21728	-150.78252	260.39594	25.51188	-54.05869	-249.27240	18.56926	341.59433	236.21700	147.94115	410.02405	14.64490	806.54230	-311.89844	-70.37708	547.48877	-294.81897	85.63654	552.23883	-283.02353	-148.12662	558.69641	585.46625	0.91474	558.27014	599.44769	
1769	17.680	-254.19499	20.22939	-150.76106	260.17886	25.68756	-54.32184	-249.37756	18.53362	341.54974	237.83385	146.47453	412.96164	14.24715	806.70374	-312.35822	-70.85167	547.58698	-295.35632	85.09776	552.37341	-283.62598	-148.76801	558.46521	584.47046	0.19236	558.09314	598.74445	
1770	17.690	-254.27933	20.32738	-150.70845	260.12778	25.72869	-54.37663	-249.40573	18.45751	341.51202	238.52788	145.84836	415.05963	13.58388	806.85571	-313.06100	-71.61814	547.76093	-296.29758	84.42906	552.43555	-284.34784	-149.27617	558.29205	584.08795	-0.75134	557.83673	597.77789	
1771	17.700	-254.29652	20.28562	-150.72038	260.23996	25.61652	-54.34338	-249.43138	18.36827	341.45551	240.60143	146.30800	417.09607	13.29457	806.85675	-313.49753	-72.03326	547.81000	-296.80579	82.98715	552.75940	-285.08099	-149.76961	558.23834	583.63507	-1.15979	557.67267	597.19659	
1772	17.710	-254.35379	20.21648	-150.74115	260.09320	25.73358	-54.42313	-249.53239	18.37649	341.46747	243.62457	147.06876	419.18945	12.56265	806.87848	-314.04446	-72.60695	547.75671	-297.37881	82.52030	552.74725	-285.62805	-150.19995	558.27490	583.07867	-1.72302	557.61884	596.54626	
1773	17.720	-254.33673	20.13971	-150.81029	260.24197	25.68516	-54.35494	-249.51096	18.36150	341.46857	246.14572	148.04845	421.44830	11.78304	806.75031	-314.86142	-73.15463	547.69440	-297.88394	81.99896	552.79883	-286.26550	-150.86263	558.15094	582.25769	-2.21157	557.71515	596.09552	
1774	17.730	-254.36026	20.08175	-150.82407	260.12003	25.75685	-54.45171	-249.47789	18.28477	341.43921	248.31229	148.13181	423.80536	11.42656	806.77527	-315.21210	-73.46421	547.44196	-298.24670	81.77480	552.76428	-286.69907	-151.14055	558.13654	581.98450	-2.74428	557.79712	595.76862	
1775	17.740	-254.36287	20.06577	-150.82358	260.09692	25.76539	-54.43438	-249.49315	18.27691	341.37946	249.55434	147.12885	425.46030	10.86493	806.73010	-315.61761	-73.86631	547.31012	-298.66940	81.54877	552.72430	-287.08597	-151.52910	558.30554	581.55292	-3.10522	558.24774	595.32495	
1776	17.750	-254.40196	20.02628	-150.83618	260.08124	25.79701	-54.46422	-249.38510	18.43704	341.41565	251.48293	144.28819	427.54373	10.26937	806.71552	-316.25537	-74.16339	547.26471	-299.15881	81.23036	552.60339	-287.40616	-151.97600	558.54028	580.99170	-3.41641	558.58936	594.82916	
1777	17.760	-254.40034	19.96518	-150.84462	260.09045	25.79376	-54.40170	-249.37271	18.46039	341.39740	253.51321	138.88510	429.22562	10.27741	806.58258	-316.51633	-74.33823	547.27570	-299.43362	80.84189	552.54083	-287.77921	-151.99442	558.73553	580.90131	-3.74858	558.80109	594.56543	
1778	17.770	-254.38542	19.93996	-150.87247	260.08340	25.79309	-54.43387	-249.38268	18.50149	341.44730	255.05841	130.85010	430.43051	10.14995	806.47675	-316.82220	-74.61651	547.26160	-299.64786	80.68434	552.60406	-287.99454	-152.27701	558.87848	580.75024	-4.02845	558.93140	594.41193	
1779	17.780	-254.38898	19.95254	-150.90820	260.02527	25.79319	-54.48872	-249.51204	18.41674	341.38580	256.60449	120.86459	431.77859	10.01486	806.54962	-316.94656	-74.74725	547.25360	-299.75351	80.58479	552.71478	-288.11646	-152.58629	558.91766	580.49994	-4.23006	558.93640	594.22046	
1780	17.790	-254.38779	20.01537	-150.93411	259.99811	25.79217	-54.50137	-249.53015	18.29918	341.34171	258.60840	109.96984	432.53830	9.87086	806.78491	-316.92496	-74.82296	547.42914	-299.74069	80.42772	553.00421	-288.19937	-152.66986	558.90436	580.54413	-4.31265	558.88171	594.14124	
1781	17.800	-254.34920	20.13076	-150.91672	260.00336	25.78895	-54.52516	-249.62273	18.21932	341.32501	260.11646	98.36751	434.11261	9.75506	807.13641	-316.71829	-74.94478	547.82660	-299.84717	80.26580	553.26660	-288.25928	-152.78624	558.71552	580.42657	-4.37082	558.73334	594.12482	
1782	17.810	-254.37349	20.23112	-150.89940	260.02362	25.78038	-54.53606	-249.59190	18.16065	341.37488	260.45169	87.05508	435.55588	9.71587	807.51666	-316.48459	-75.02527	548.33270	-299.89716	80.11293	553.60724	-288.24338	-152.81563	558.48492	580.42255	-4.28775	558.45685	594.17706	
1783	17.820	-254.36868	20.23983	-150.86513	259.98233	25.75053	-54.59617	-249.58113	18.15006	341.36743	261.44736	76.56244	437.68146	9.50324	807.92181	-316.44662	-75.22795	548.69373	-299.89630	80.02528	553.77472	-288.21048	-152.83051	558.23175	580.29193	-4.19674	558.06012	594.29578	
1784	17.830	-254.34990	20.19427	-150.87126	260.00839	25.73375	-54.59451	-249.61348	18.15300	341.36877	261.98898	65.91109	439.41687	9.32692	808.19617	-316.33594	-75.40770	548.88397	-299.79990	79.81464	553.93298	-288.22537	-152.59581	558.13635	580.53619	-4.05164	557.98718	594.34857	
1785	17.840	-254.36986	20.13527	-150.82039	259.96313	25.72105	-54.65361	-249.58145	18.15603	341.36938	262.87289	55.68674	440.71976	9.14387	808.25836	-316.25061	-75.50491	548.90265	-299.77121	79.73500	553.99548	-288.13043	-152.54152	558.14697	580.64954	-3.85502	558.00110	594.47980	
